Coordinates
version=1
nRows=16
nColumns=40
inDegrees=yes

Units are S.I. units (second, meters, Newtons, ...)
Angles are in degrees.

endheader
time	pelvis_tilt	pelvis_list	pelvis_rotation	pelvis_tx	pelvis_ty	pelvis_tz	hip_flexion_r	hip_adduction_r	hip_rotation_r	knee_angle_r	knee_angle_r_beta	ankle_angle_r	subtalar_angle_r	mtp_angle_r	hip_flexion_l	hip_adduction_l	hip_rotation_l	knee_angle_l	knee_angle_l_beta	ankle_angle_l	subtalar_angle_l	mtp_angle_l	lumbar_extension	lumbar_bending	lumbar_rotation	arm_flex_r	arm_add_r	arm_rot_r	elbow_flex_r	pro_sup_r	wrist_flex_r	wrist_dev_r	arm_flex_l	arm_add_l	arm_rot_l	elbow_flex_l	pro_sup_l	wrist_flex_l	wrist_dev_l
     34.08000000	     -3.51951380	     -4.53014157	      0.91700683	      1.11131000	      0.93073258	      0.50122044	     13.71095377	      1.81328343	    -14.36778415	     17.90866266	     17.90866266	      9.49348586	      2.33490851	     -4.06083657	     27.76461511	    -12.82180243	      1.29829816	     60.73297661	     60.73297661	      9.65146269	    -17.12207055	      8.86728702	    -11.30134726	      5.55940011	      2.03733408	     13.90552287	    -21.84001202	      1.48755107	     58.97479242	     45.43169265	      0.00000000	      0.00000000	      8.01036649	     -9.73754355	     -5.21245199	     35.63843272	     45.43022619	      0.00000000	      0.00000000
     34.09371429	     -3.71653872	     -4.37844770	      1.13633713	      1.11082341	      0.93129880	      0.50212593	     13.30487166	      1.74892326	    -14.49634983	     17.45154809	     17.45154809	      9.59208329	      2.50025104	     -4.03956447	     28.97263025	    -12.76485793	      1.00107407	     58.67126015	     58.67126015	      9.79956290	    -17.33171469	      9.09683606	    -11.25562520	      5.46498718	      2.59804725	     15.56122727	    -22.22718745	      1.27049768	     59.67865966	     45.42432349	      0.00000000	      0.00000000	      6.86069167	     -9.38663872	     -5.09726729	     34.95592285	     45.40442450	      0.00000000	      0.00000000
     34.10742857	     -3.75315949	     -4.30952051	      1.46751959	      1.11038459	      0.93209270	      0.50291960	     12.61513446	      1.75818661	    -14.93400804	     16.80867553	     16.80867553	      9.61115599	      2.99294597	     -4.15633767	     29.84830833	    -12.67867768	      0.83393673	     56.23584496	     56.23584496	      9.65966724	    -17.61030828	      9.01326939	    -11.34044682	      5.43244464	      2.39061289	     17.68340943	    -22.38258172	      2.08318574	     60.56239012	     45.37480970	      0.00000000	      0.00000000	      5.82177778	     -9.28465003	     -4.79354199	     33.12358407	     45.40604380	      0.00000000	      0.00000000
     34.12114286	     -3.84385997	     -4.18206450	      1.72540448	      1.10996372	      0.93270123	      0.50363157	     12.06609720	      1.74274835	    -15.02234661	     16.29404845	     16.29404845	      9.70591214	      3.01438904	     -4.08107071	     30.58092319	    -12.49139286	      0.59410266	     53.51475553	     53.51475553	      9.67442648	    -17.73440642	      9.35606362	    -11.40811376	      5.34345776	      2.71639548	     19.42343186	    -22.62641527	      1.96428727	     61.37078918	     45.36083460	      0.00000000	      0.00000000	      4.67897721	     -9.07556288	     -4.71857586	     32.41640246	     45.39080877	      0.00000000	      0.00000000
     34.13485714	     -4.00700927	     -4.08135929	      1.96411659	      1.10946488	      0.93306922	      0.50417768	     11.66256845	      1.71981762	    -15.14922243	     15.88808247	     15.88808247	      9.80866709	      3.07549060	     -4.05365446	     31.24984935	    -12.28025461	      0.35695107	     50.53849047	     50.53849047	      9.65821975	    -17.61673436	      9.69542712	    -11.40521160	      5.29905317	      3.04354885	     21.11307223	    -22.94973815	      1.85908145	     62.08670171	     45.34923232	      0.00000000	      0.00000000	      3.59319149	     -8.84374233	     -4.64340765	     31.70834664	     45.37256141	      0.00000000	      0.00000000
     34.14857143	     -4.17006800	     -3.96324509	      2.20788612	      1.10897158	      0.93334419	      0.50453572	     11.26003027	      1.66751381	    -15.27949705	     15.48580271	     15.48580271	      9.94031089	      3.14888690	     -4.04222007	     31.74515957	    -11.96584220	      0.17518116	     47.26500835	     47.26500835	      9.59733451	    -17.30656406	     10.01765628	    -11.38026254	      5.22001122	      3.31152033	     22.80425163	    -23.22201824	      1.78851119	     62.79902335	     45.33644148	      0.00000000	      0.00000000	      2.53723445	     -8.63491554	     -4.56740034	     30.96047336	     45.35333870	      0.00000000	      0.00000000
     34.16228571	     -4.30655304	     -3.86119514	      2.45191592	      1.10847923	      0.93355791	      0.50467731	     10.84728640	      1.61441192	    -15.43181124	     15.11519269	     15.11519269	     10.06955610	      3.25351099	     -4.04627299	     32.03118292	    -11.58561326	      0.07011073	     43.70762491	     43.70762491	      9.45664831	    -16.79040092	     10.24314632	    -11.37969405	      5.16157906	      3.44457027	     24.44556925	    -23.35431479	      1.81578981	     63.49476709	     45.32040363	      0.00000000	      0.00000000	      1.55446016	     -8.50279616	     -4.49196116	     30.13833159	     45.33622591	      0.00000000	      0.00000000
     34.17600000	     -4.40044842	     -3.83266991	      2.71893305	      1.10802305	      0.93367394	      0.50457747	     10.39456177	      1.59251872	    -15.82392579	     14.76828427	     14.76828427	     10.21067178	      3.66465003	     -4.12777115	     32.01837180	    -11.22637501	      0.01343888	     39.69035649	     39.69035649	      8.13186990	    -16.35568643	      7.62124995	    -11.36593090	      5.23875835	      3.06688758	     26.78978030	    -23.39415755	      3.49543830	     63.28098802	     45.28481446	      0.00000000	      0.00000000	      0.78753116	     -8.37198417	     -4.48000395	     28.07616706	     45.40336019	      0.00000000	      0.00000000
     34.18971429	     -4.61562763	     -3.75964936	      2.92094546	      1.10747590	      0.93350795	      0.50436906	     10.16093136	      1.53979417	    -15.85693617	     14.55902563	     14.55902563	     10.41455363	      3.60207796	     -4.17865192	     32.13221420	    -10.79969919	     -0.03231528	     35.87499510	     35.87499510	      8.01823751	    -15.06281521	      7.96597237	    -11.25994289	      5.20455062	      3.34050566	     28.11917058	    -23.57125238	      3.30021890	     63.90042206	     45.27829749	      0.00000000	      0.00000000	     -0.10102364	     -8.22381445	     -4.49470533	     27.67512766	     45.39883371	      0.00000000	      0.00000000
     34.20342857	     -4.78254717	     -3.71333402	      3.11975824	      1.10698658	      0.93329844	      0.50399212	      9.86938053	      1.50365587	    -15.93748502	     14.34716816	     14.34716816	     10.61391163	      3.60752840	     -4.23809132	     32.07433318	    -10.38014195	     -0.05614302	     32.03656443	     32.03656443	      7.82828294	    -13.44688019	      8.19282828	    -11.20003519	      5.19634617	      3.47340566	     29.46566287	    -23.58871345	      3.17396578	     64.54360051	     45.26856007	      0.00000000	      0.00000000	     -0.95870559	     -8.11922411	     -4.49500341	     27.16423256	     45.39367777	      0.00000000	      0.00000000
     34.21714286	     -4.87319185	     -3.75947356	      3.32149172	      1.10661728	      0.93301650	      0.50345750	      9.45665617	      1.55449778	    -16.17034951	     14.07596837	     14.07596837	     10.83961914	      3.82333672	     -4.32645034	     31.78762756	    -10.07019586	     -0.16419447	     28.12959214	     28.12959214	      6.70278218	    -11.79885126	      6.02404571	    -11.18455400	      5.31305411	      3.22441677	     31.26132939	    -23.29389582	      3.68108843	     64.57682475	     45.26759017	      0.00000000	      0.00000000	     -1.77192419	     -7.98460800	     -4.77235438	     26.12592641	     45.50776107	      0.00000000	      0.00000000
     34.23085714	     -5.03832715	     -3.75233513	      3.49349197	      1.10620673	      0.93258165	      0.50278978	      9.19334995	      1.53897698	    -16.19490536	     13.93974271	     13.93974271	     11.09376737	      3.75598233	     -4.42125869	     31.64213071	     -9.67431177	     -0.19202202	     24.74248391	     24.74248391	      6.51721587	     -9.90039838	      6.56162695	    -11.08653562	      5.33704982	      3.41088980	     32.34837505	    -23.30316262	      3.55639338	     65.14034419	     45.25931102	      0.00000000	      0.00000000	     -2.48437088	     -7.90682700	     -4.79894583	     25.78424828	     45.50847132	      0.00000000	      0.00000000
     34.24457143	     -5.12390910	     -3.79118192	      3.64913710	      1.10593655	      0.93217764	      0.50202068	      8.80362246	      1.58095865	    -16.26369845	     13.73806389	     13.73806389	     11.34848798	      3.76339103	     -4.50543594	     31.44179358	     -9.36255377	     -0.34544181	     21.83819725	     21.83819725	      6.36901716	     -7.94936547	      7.03789286	    -11.06407738	      5.39993905	      3.45080619	     33.46224959	    -23.15488244	      3.47459059	     65.71470069	     45.24951934	      0.00000000	      0.00000000	     -3.17903328	     -7.86715220	     -4.82365821	     25.36922978	     45.51187804	      0.00000000	      0.00000000
     34.25828571	     -5.21260131	     -3.85136631	      3.80511848	      1.10575324	      0.93171535	      0.50111864	      8.40400281	      1.64149510	    -16.32822942	     13.52197661	     13.52197661	     11.60668670	      3.78480496	     -4.58153982	     31.31595502	     -9.07681229	     -0.56574279	     19.53762868	     19.53762868	      6.20557363	     -6.25342105	      7.48335653	    -10.98856412	      5.48954884	      3.48861098	     34.45400077	    -22.95459612	      3.43149722	     66.19316043	     45.24096930	      0.00000000	      0.00000000	     -3.77833376	     -7.82780655	     -4.84764395	     25.00392574	     45.51630597	      0.00000000	      0.00000000
     34.27200000	     -5.26377151	     -3.92016248	      3.93590018	      1.10572178	      0.93125100	      0.50011590	      7.93124309	      1.71494147	    -16.37235498	     13.26593755	     13.26593755	     11.87276086	      3.84090005	     -4.63993331	     31.22281852	     -8.82322517	     -0.85442927	     17.91920523	     17.91920523	      6.12016042	     -4.87754917	      7.81361318	    -10.94676146	      5.56258135	      3.47226165	     35.38225326	    -22.67975404	      3.41870917	     66.61871476	     45.23313972	      0.00000000	      0.00000000	     -4.33713272	     -7.82533992	     -4.88777967	     24.66873489	     45.52622465	      0.00000000	      0.00000000
     34.28571429	     -5.31267720	     -4.00834779	      4.05687335	      1.10576303	      0.93075983	      0.49899552	      7.44973093	      1.80593522	    -16.40989510	     12.99916550	     12.99916550	     12.14269210	      3.89594891	     -4.67427731	     31.20171136	     -8.60115988	     -1.20925166	     16.98069713	     16.98069713	      6.00081893	     -3.96926989	      7.98395988	    -10.87405058	      5.65565969	      3.44653141	     36.17515367	    -22.37521891	      3.42746184	     66.97925827	     45.22622879	      0.00000000	      0.00000000	     -4.83103215	     -7.83410400	     -4.94442688	     24.44478891	     45.54065387	      0.00000000	      0.00000000
